<svg fill="#000000" xmlns="http://www.w3.org/2000/svg" viewBox="0 0 26 26" width="256px" height="256px"><path d="M7.4 21.3c.2-.4.5-.8.7-1.2.1-.2.2-.3.2-.4-2.1-1.5-3.5-3.9-3.5-6.7 0-4.5 3.6-8.1 8.1-8.1.4 0 .8 0 1.3.1l1.5-1.6C14.9 3.1 14 3 13 3 7.5 3 3 7.5 3 13 3 16.5 4.7 19.5 7.4 21.3zM18.6 4.7l-1 1.6c2.1 1.5 3.5 3.9 3.5 6.7 0 4.5-3.6 8.1-8.1 8.1-.3 0-.7 0-1-.1l-1.6 1.6c.8.2 1.7.3 2.6.3 5.5 0 10-4.5 10-10C23 9.5 21.2 6.5 18.6 4.7z"/><g><path d="M20.1 0.2L8.9 12.2 12.2 11.7 8 17.9 11.2 17.5 5.8 26 16.7 14.8 13.4 15.1 18.5 8.6 14.5 9.7z"/></g></svg>