<svg fill="#000000" xmlns="http://www.w3.org/2000/svg" viewBox="0 0 26 26" width="256px" height="256px"><path d="M19.641 17.656c-.841 1.29-3.507 2.469-6.609 2.469-3.134 0-5.89-1.128-6.703-2.438-.36 1.072-.644 1.913-.644 2.369 0 1.724 3.275 3.12 7.316 3.12 4.041 0 7.316-1.396 7.316-3.12C20.316 19.66 20.013 18.745 19.641 17.656zM18.141 13.375l-1.394-4.982c0 0-1.253.92-3.747.92-2.494 0-3.748-.921-3.748-.921L7.86 13.375c0 0 1.422 1.396 5.14 1.396C16.719 14.771 18.141 13.375 18.141 13.375zM15.34 3.472L14.446.28c0 0-.343.158-1.446.158s-1.281-.146-1.281-.146l-1.059 3.179c0 0 .639.417 2.339.417S15.34 3.472 15.34 3.472z"/><path d="M21.924,16.859c0,0-0.08-0.604-0.908-0.604c-0.156,0-1.342,0-2.301,0c0.576,1.928,0.625,3.342,0.625,3.447 c0,1.724-2.457,2.451-6.441,2.451c-3.983,0-6.248-0.68-6.248-2.403c0-0.121,0.052-1.448,0.625-3.364 c-1.149,0-2.461-0.131-2.605-0.131c-0.582,0-0.677,0.541-0.677,0.541l-2.436,8.471L2.032,26H24.17l0.271-0.733L21.924,16.859z"/><g><path d="M13,2.665c1.327,4.255,4.503,14.635,5.144,16.93c-0.471,0.542-2.338,1.582-5.145,1.582 c-2.812,0-4.681-1.044-5.146-1.585C8.477,17.334,11.666,6.946,13,2.665 M13,0c-0.743,0-1.346,0.129-1.346,0.288 c-0.355,1.071-5.866,18.881-5.866,19.337c0,1.724,3.229,3.552,7.212,3.552c3.983,0,7.212-1.828,7.212-3.552 c0-0.396-5.499-18.249-5.866-19.337C14.346,0.129,13.743,0,13,0L13,0z"/></g></svg>